# xmcd
#
# Track frame offsets:
#	150
#	18137
#	43717
#	60820
#	77837
#	102985
#	123660
#	157570
#	178277
#	208647
#	255442
#	275425
#	293780
#
# Disc length: 4240 seconds
#
# Revision: 1
# Processed by: cddbd v1.5PL3 Copyright (c) Steve Scherf et al.
# Submitted via: CDex 1.50Beta5
#
DISCID=a7108e0d
DTITLE=Hector Lavoe - La historia de
DYEAR=1900
DGENRE=
TTITLE0=El Malo
TTITLE1=Juana Pe?a
TTITLE2=Ah-Ah/Oh-No
TTITLE3=Calle Luna
TTITLE4=La Murga
TTITLE5=Paraiso de Dulzura
TTITLE6=Mi Gente
TTITLE7=De ti Depende
TTITLE8=Periodico de Ayer
TTITLE9=El Cantante
TTITLE10=Isla del Encanto
TTITLE11=Sombras Nada mas
TTITLE12=Loco
EXTD=
EXTT0=
EXTT1=
EXTT2=
EXTT3=
EXTT4=
EXTT5=
EXTT6=
EXTT7=
EXTT8=
EXTT9=
EXTT10=
EXTT11=
EXTT12=
PLAYORDER=
